<svg width="41" height="40" viewBox="0 0 41 40" fill="none" xmlns="http://www.w3.org/2000/svg">
<rect x="1.65137" y="1" width="38" height="38" rx="19" stroke="#999999" stroke-width="2"/>
<path d="M21.6339 27C14.1173 27 9.83001 21.7447 9.65137 13H13.4165C13.5402 19.4184 16.316 22.1371 18.5146 22.6977V13H22.0599V18.5355C24.231 18.2973 26.5121 15.7748 27.2816 13H30.8269C30.5369 14.4391 29.9589 15.8017 29.129 17.0025C28.2991 18.2033 27.2351 19.2166 26.0036 19.979C27.3782 20.6756 28.5924 21.6615 29.5659 22.8717C30.5394 24.082 31.2502 25.489 31.6514 27H27.7488C27.3887 25.6876 26.6568 24.5128 25.6448 23.6228C24.6328 22.7328 23.3857 22.1673 22.0599 21.997V27H21.6339Z" fill="#999999"/>
</svg>
